# xmcd
#
# Track frame offsets:
#	150
#	16052
#	33304
#	50631
#	82133
#	98935
#	112112
#	138489
#	173791
#	197568
#	217107
#	236922
#	256599
#	273101
#	295303
#	312630
#
# Disc length: 4409 seconds
#
# Revision: 0
# Processed by: cddbd v1.4PL0 Copyright (c) Steve Scherf et al.
# Submitted via: EasyCDDAExtractor 5.0.0.0
#
DISCID=ee113710
DTITLE=Bonnie Tyler - Greatest Hits
DYEAR=1900
DGENRE=
TTITLE0=Its A Heartache
TTITLE1=Bitterblue
TTITLE2=Here Am I
TTITLE3=Total Eclipse Of My Heart
TTITLE4=Straight From The Heart
TTITLE5=A Rockin Good way
TTITLE6=Holding Out For A Hero
TTITLE7=Loving You Is A Dirty Job
TTITLE8=If You Were A Woman
TTITLE9=Islands
TTITLE10=Hide Your Heart
TTITLE11=Save Up All Your Tears
TTITLE12=Against The Wind
TTITLE13=Where Were You
TTITLE14=Till The End Of Time
TTITLE15=I Cant Leave Your Love Alone
EXTD=
EXTT0=
EXTT1=
EXTT2=
EXTT3=
EXTT4=
EXTT5=
EXTT6=
EXTT7=
EXTT8=
EXTT9=
EXTT10=
EXTT11=
EXTT12=
EXTT13=
EXTT14=
EXTT15=
PLAYORDER=
